<svg width="263" height="84" viewBox="0 0 263 84" fill="none" xmlns="http://www.w3.org/2000/svg">
<path d="M12.8813 1.4C16.1773 1.4 18.9613 2.52 21.2333 4.76C23.5053 7 24.6413 9.72 24.6413 12.92C24.6413 16.12 23.5053 18.84 21.2333 21.08C18.9613 23.32 16.1773 24.44 12.8813 24.44H7.84125V35H0.16125V1.4H12.8813ZM12.8813 17.24C14.0653 17.24 15.0413 16.824 15.8093 15.992C16.5773 15.16 16.9613 14.136 16.9613 12.92C16.9613 11.704 16.5773 10.68 15.8093 9.848C15.0413 9.016 14.0653 8.6 12.8813 8.6H7.84125V17.24H12.8813ZM34.965 15.272C35.413 13.736 36.309 12.568 37.653 11.768C39.029 10.936 40.533 10.52 42.165 10.52V18.68C40.405 18.392 38.757 18.696 37.221 19.592C35.717 20.456 34.965 21.976 34.965 24.152V35H27.765V11H34.965V15.272ZM52.0275 7.64H58.9395L64.5075 0.919998H55.8675L52.0275 7.64ZM65.3715 32.024C62.9075 34.456 59.8995 35.672 56.3475 35.672C52.7955 35.672 49.7875 34.456 47.3235 32.024C44.8595 29.56 43.6275 26.552 43.6275 23C43.6275 19.448 44.8595 16.456 47.3235 14.024C49.7875 11.56 52.7955 10.328 56.3475 10.328C59.8995 10.328 62.9075 11.56 65.3715 14.024C67.8355 16.456 69.0675 19.448 69.0675 23C69.0675 26.552 67.8355 29.56 65.3715 32.024ZM52.4115 27.08C53.4675 28.136 54.7795 28.664 56.3475 28.664C57.9155 28.664 59.2275 28.136 60.2835 27.08C61.3395 26.024 61.8675 24.664 61.8675 23C61.8675 21.336 61.3395 19.976 60.2835 18.92C59.2275 17.864 57.9155 17.336 56.3475 17.336C54.7795 17.336 53.4675 17.864 52.4115 18.92C51.3555 19.976 50.8275 21.336 50.8275 23C50.8275 24.664 51.3555 26.024 52.4115 27.08ZM90.756 11H97.764V33.8C97.764 37.576 96.532 40.424 94.068 42.344C91.604 44.296 88.612 45.272 85.092 45.272C79.684 45.272 75.892 43.336 73.716 39.464L79.86 35.912C80.948 37.928 82.772 38.936 85.332 38.936C87.028 38.936 88.356 38.488 89.316 37.592C90.276 36.728 90.756 35.464 90.756 33.8V31.592C89.092 33.672 86.756 34.712 83.748 34.712C80.388 34.712 77.572 33.528 75.3 31.16C73.06 28.76 71.94 25.88 71.94 22.52C71.94 19.16 73.06 16.296 75.3 13.928C77.572 11.528 80.388 10.328 83.748 10.328C86.756 10.328 89.092 11.368 90.756 13.448V11ZM80.772 26.552C81.86 27.576 83.252 28.088 84.948 28.088C86.644 28.088 88.036 27.576 89.124 26.552C90.212 25.528 90.756 24.184 90.756 22.52C90.756 20.856 90.212 19.512 89.124 18.488C88.036 17.464 86.644 16.952 84.948 16.952C83.252 16.952 81.86 17.464 80.772 18.488C79.684 19.512 79.14 20.856 79.14 22.52C79.14 24.184 79.684 25.528 80.772 26.552ZM110.246 15.272C110.694 13.736 111.59 12.568 112.934 11.768C114.31 10.936 115.814 10.52 117.446 10.52V18.68C115.686 18.392 114.038 18.696 112.502 19.592C110.998 20.456 110.246 21.976 110.246 24.152V35H103.046V11H110.246V15.272ZM137.533 11H144.733V35H137.533V32.744C135.837 34.696 133.453 35.672 130.381 35.672C127.213 35.672 124.509 34.456 122.269 32.024C120.029 29.56 118.909 26.552 118.909 23C118.909 19.448 120.029 16.456 122.269 14.024C124.509 11.56 127.213 10.328 130.381 10.328C133.453 10.328 135.837 11.304 137.533 13.256V11ZM127.693 27.272C128.749 28.328 130.125 28.856 131.821 28.856C133.517 28.856 134.893 28.328 135.949 27.272C137.005 26.216 137.533 24.792 137.533 23C137.533 21.208 137.005 19.784 135.949 18.728C134.893 17.672 133.517 17.144 131.821 17.144C130.125 17.144 128.749 17.672 127.693 18.728C126.637 19.784 126.109 21.208 126.109 23C126.109 24.792 126.637 26.216 127.693 27.272ZM176.895 10.328C179.647 10.328 181.855 11.24 183.519 13.064C185.183 14.856 186.015 17.256 186.015 20.264V35H178.815V20.888C178.815 19.672 178.511 18.712 177.903 18.008C177.327 17.304 176.479 16.952 175.359 16.952C174.175 16.952 173.247 17.352 172.575 18.152C171.935 18.952 171.615 20.056 171.615 21.464V35H164.415V20.888C164.415 19.672 164.111 18.712 163.503 18.008C162.927 17.304 162.079 16.952 160.959 16.952C159.775 16.952 158.847 17.352 158.175 18.152C157.535 18.952 157.215 20.056 157.215 21.464V35H150.015V11H157.215V13.208C158.527 11.288 160.671 10.328 163.647 10.328C166.431 10.328 168.527 11.384 169.935 13.496C171.407 11.384 173.727 10.328 176.895 10.328ZM208.361 11H215.561V35H208.361V32.744C206.665 34.696 204.281 35.672 201.209 35.672C198.041 35.672 195.337 34.456 193.097 32.024C190.857 29.56 189.737 26.552 189.737 23C189.737 19.448 190.857 16.456 193.097 14.024C195.337 11.56 198.041 10.328 201.209 10.328C204.281 10.328 206.665 11.304 208.361 13.256V11ZM198.521 27.272C199.577 28.328 200.953 28.856 202.649 28.856C204.345 28.856 205.721 28.328 206.777 27.272C207.833 26.216 208.361 24.792 208.361 23C208.361 21.208 207.833 19.784 206.777 18.728C205.721 17.672 204.345 17.144 202.649 17.144C200.953 17.144 199.577 17.672 198.521 18.728C197.465 19.784 196.937 21.208 196.937 23C196.937 24.792 197.465 26.216 198.521 27.272ZM234.907 17.912H229.963V26.408C229.963 27.368 230.347 27.976 231.115 28.232C231.883 28.488 233.147 28.568 234.907 28.472V35C230.331 35.48 227.163 35.048 225.403 33.704C223.643 32.328 222.763 29.896 222.763 26.408V17.912H218.923V11H222.763V6.44L229.963 4.28V11H234.907V17.912ZM244.947 25.88C245.779 28.12 247.699 29.24 250.707 29.24C252.659 29.24 254.195 28.632 255.315 27.416L261.075 30.728C258.707 34.024 255.219 35.672 250.611 35.672C246.579 35.672 243.347 34.472 240.915 32.072C238.515 29.672 237.315 26.648 237.315 23C237.315 19.384 238.499 16.376 240.867 13.976C243.267 11.544 246.339 10.328 250.083 10.328C253.571 10.328 256.467 11.544 258.771 13.976C261.107 16.376 262.275 19.384 262.275 23C262.275 24.024 262.179 24.984 261.987 25.88H244.947ZM244.803 20.504H255.123C254.419 17.976 252.723 16.712 250.035 16.712C247.251 16.712 245.507 17.976 244.803 20.504ZM35.2181 83.672C31.7941 83.672 28.9301 82.936 26.6261 81.464C24.3541 79.96 22.7381 77.928 21.7781 75.368L28.4021 71.528C29.7461 74.632 32.0981 76.184 35.4581 76.184C38.4981 76.184 40.0181 75.272 40.0181 73.448C40.0181 72.456 39.5221 71.688 38.5301 71.144C37.5701 70.568 35.7461 69.912 33.0581 69.176C31.6501 68.792 30.4181 68.36 29.3621 67.88C28.3061 67.4 27.2661 66.776 26.2421 66.008C25.2501 65.208 24.4821 64.216 23.9381 63.032C23.4261 61.848 23.1701 60.488 23.1701 58.952C23.1701 55.848 24.2741 53.368 26.4821 51.512C28.7221 49.656 31.3781 48.728 34.4501 48.728C37.2021 48.728 39.6341 49.384 41.7461 50.696C43.8581 51.976 45.5221 53.848 46.7381 56.312L40.2581 60.104C39.6501 58.824 38.8981 57.864 38.0021 57.224C37.1061 56.552 35.9221 56.216 34.4501 56.216C33.2981 56.216 32.4021 56.472 31.7621 56.984C31.1541 57.464 30.8501 58.056 30.8501 58.76C30.8501 59.592 31.2341 60.312 32.0021 60.92C32.8021 61.528 34.4341 62.2 36.8981 62.936C38.2421 63.352 39.2821 63.688 40.0181 63.944C40.7541 64.2 41.6821 64.632 42.8021 65.24C43.9541 65.816 44.8181 66.44 45.3941 67.112C46.0021 67.752 46.5301 68.616 46.9781 69.704C47.4581 70.76 47.6981 71.976 47.6981 73.352C47.6981 76.552 46.5461 79.08 44.2421 80.936C41.9381 82.76 38.9301 83.672 35.2181 83.672ZM72.5434 80.024C70.0794 82.456 67.0714 83.672 63.5194 83.672C59.9674 83.672 56.9594 82.456 54.4954 80.024C52.0314 77.56 50.7994 74.552 50.7994 71C50.7994 67.448 52.0314 64.456 54.4954 62.024C56.9594 59.56 59.9674 58.328 63.5194 58.328C67.0714 58.328 70.0794 59.56 72.5434 62.024C75.0074 64.456 76.2394 67.448 76.2394 71C76.2394 74.552 75.0074 77.56 72.5434 80.024ZM59.5834 75.08C60.6394 76.136 61.9514 76.664 63.5194 76.664C65.0874 76.664 66.3994 76.136 67.4554 75.08C68.5114 74.024 69.0394 72.664 69.0394 71C69.0394 69.336 68.5114 67.976 67.4554 66.92C66.3994 65.864 65.0874 65.336 63.5194 65.336C61.9514 65.336 60.6394 65.864 59.5834 66.92C58.5274 67.976 57.9994 69.336 57.9994 71C57.9994 72.664 58.5274 74.024 59.5834 75.08ZM91.8319 83.672C88.1839 83.672 85.1439 82.456 82.7119 80.024C80.3119 77.592 79.1119 74.584 79.1119 71C79.1119 67.416 80.3119 64.408 82.7119 61.976C85.1439 59.544 88.1839 58.328 91.8319 58.328C94.1359 58.328 96.2479 58.888 98.1679 60.008C100.12 61.128 101.624 62.616 102.68 64.472L96.3919 68.12C95.5279 66.328 93.9759 65.432 91.7359 65.432C90.1679 65.432 88.8719 65.96 87.8479 67.016C86.8239 68.04 86.3119 69.368 86.3119 71C86.3119 72.632 86.8239 73.976 87.8479 75.032C88.8719 76.056 90.1679 76.568 91.7359 76.568C94.0079 76.568 95.5599 75.672 96.3919 73.88L102.68 77.48C101.624 79.368 100.136 80.872 98.2159 81.992C96.2959 83.112 94.1679 83.672 91.8319 83.672ZM112.202 55.64C111.37 56.472 110.362 56.888 109.178 56.888C107.994 56.888 106.97 56.472 106.105 55.64C105.274 54.776 104.858 53.752 104.858 52.568C104.858 51.384 105.274 50.376 106.105 49.544C106.97 48.68 107.994 48.248 109.178 48.248C110.362 48.248 111.37 48.68 112.202 49.544C113.066 50.376 113.498 51.384 113.498 52.568C113.498 53.752 113.066 54.776 112.202 55.64ZM105.578 83V59H112.778V83H105.578ZM135.47 59H142.67V83H135.47V80.744C133.774 82.696 131.39 83.672 128.318 83.672C125.15 83.672 122.446 82.456 120.206 80.024C117.966 77.56 116.846 74.552 116.846 71C116.846 67.448 117.966 64.456 120.206 62.024C122.446 59.56 125.15 58.328 128.318 58.328C131.39 58.328 133.774 59.304 135.47 61.256V59ZM125.63 75.272C126.686 76.328 128.062 76.856 129.758 76.856C131.454 76.856 132.83 76.328 133.886 75.272C134.942 74.216 135.47 72.792 135.47 71C135.47 69.208 134.942 67.784 133.886 66.728C132.83 65.672 131.454 65.144 129.758 65.144C128.062 65.144 126.686 65.672 125.63 66.728C124.574 67.784 124.046 69.208 124.046 71C124.046 72.792 124.574 74.216 125.63 75.272ZM147.953 83V47.96H155.153V83H147.953ZM180.341 75.608H192.341V83H172.661V49.4H180.341V75.608ZM212.673 59H219.873V83H212.673V80.744C210.977 82.696 208.593 83.672 205.521 83.672C202.353 83.672 199.649 82.456 197.409 80.024C195.169 77.56 194.049 74.552 194.049 71C194.049 67.448 195.169 64.456 197.409 62.024C199.649 59.56 202.353 58.328 205.521 58.328C208.593 58.328 210.977 59.304 212.673 61.256V59ZM202.833 75.272C203.889 76.328 205.265 76.856 206.961 76.856C208.657 76.856 210.033 76.328 211.089 75.272C212.145 74.216 212.673 72.792 212.673 71C212.673 69.208 212.145 67.784 211.089 66.728C210.033 65.672 208.657 65.144 206.961 65.144C205.265 65.144 203.889 65.672 202.833 66.728C201.777 67.784 201.249 69.208 201.249 71C201.249 72.792 201.777 74.216 202.833 75.272ZM239.508 58.328C242.676 58.328 245.38 59.56 247.62 62.024C249.86 64.456 250.98 67.448 250.98 71C250.98 74.552 249.86 77.56 247.62 80.024C245.38 82.456 242.676 83.672 239.508 83.672C236.436 83.672 234.052 82.696 232.356 80.744V83H225.156V49.4H232.356V61.256C234.052 59.304 236.436 58.328 239.508 58.328ZM233.94 75.272C235.028 76.328 236.404 76.856 238.068 76.856C239.732 76.856 241.092 76.328 242.148 75.272C243.236 74.216 243.78 72.792 243.78 71C243.78 69.208 243.236 67.784 242.148 66.728C241.092 65.672 239.732 65.144 238.068 65.144C236.404 65.144 235.028 65.672 233.94 66.728C232.884 67.784 232.356 69.208 232.356 71C232.356 72.792 232.884 74.216 233.94 75.272Z" fill="#FFF559"/>
</svg>
