<svg width="263" height="83" viewBox="0 0 263 83" fill="none" xmlns="http://www.w3.org/2000/svg">
<path d="M13.4345 0.608494C16.7305 0.608494 19.5145 1.72849 21.7865 3.96849C24.0585 6.2085 25.1945 8.9285 25.1945 12.1285C25.1945 15.3285 24.0585 18.0485 21.7865 20.2885C19.5145 22.5285 16.7305 23.6485 13.4345 23.6485H8.39447V34.2085H0.714473V0.608494H13.4345ZM13.4345 16.4485C14.6185 16.4485 15.5945 16.0325 16.3625 15.2005C17.1305 14.3685 17.5145 13.3445 17.5145 12.1285C17.5145 10.9125 17.1305 9.88849 16.3625 9.05649C15.5945 8.22449 14.6185 7.8085 13.4345 7.8085H8.39447V16.4485H13.4345ZM35.5182 14.4805C35.9662 12.9445 36.8622 11.7765 38.2062 10.9765C39.5822 10.1445 41.0862 9.72849 42.7182 9.72849V17.8885C40.9582 17.6005 39.3102 17.9045 37.7742 18.8005C36.2702 19.6645 35.5182 21.1845 35.5182 23.3605V34.2085H28.3182V10.2085H35.5182V14.4805ZM52.5807 6.84849H59.4927L65.0607 0.128494H56.4207L52.5807 6.84849ZM65.9247 31.2325C63.4607 33.6645 60.4527 34.8805 56.9007 34.8805C53.3487 34.8805 50.3407 33.6645 47.8767 31.2325C45.4127 28.7685 44.1807 25.7605 44.1807 22.2085C44.1807 18.6565 45.4127 15.6645 47.8767 13.2325C50.3407 10.7685 53.3487 9.5365 56.9007 9.5365C60.4527 9.5365 63.4607 10.7685 65.9247 13.2325C68.3887 15.6645 69.6207 18.6565 69.6207 22.2085C69.6207 25.7605 68.3887 28.7685 65.9247 31.2325ZM52.9647 26.2885C54.0207 27.3445 55.3327 27.8725 56.9007 27.8725C58.4687 27.8725 59.7807 27.3445 60.8367 26.2885C61.8927 25.2325 62.4207 23.8725 62.4207 22.2085C62.4207 20.5445 61.8927 19.1845 60.8367 18.1285C59.7807 17.0725 58.4687 16.5445 56.9007 16.5445C55.3327 16.5445 54.0207 17.0725 52.9647 18.1285C51.9087 19.1845 51.3807 20.5445 51.3807 22.2085C51.3807 23.8725 51.9087 25.2325 52.9647 26.2885ZM91.3092 10.2085H98.3172V33.0085C98.3172 36.7845 97.0852 39.6325 94.6212 41.5525C92.1572 43.5045 89.1652 44.4805 85.6452 44.4805C80.2372 44.4805 76.4452 42.5445 74.2692 38.6725L80.4132 35.1205C81.5012 37.1365 83.3252 38.1445 85.8852 38.1445C87.5812 38.1445 88.9092 37.6965 89.8692 36.8005C90.8292 35.9365 91.3092 34.6725 91.3092 33.0085V30.8005C89.6452 32.8805 87.3092 33.9205 84.3012 33.9205C80.9412 33.9205 78.1252 32.7365 75.8532 30.3685C73.6132 27.9685 72.4932 25.0885 72.4932 21.7285C72.4932 18.3685 73.6132 15.5045 75.8532 13.1365C78.1252 10.7365 80.9412 9.5365 84.3012 9.5365C87.3092 9.5365 89.6452 10.5765 91.3092 12.6565V10.2085ZM81.3252 25.7605C82.4132 26.7845 83.8052 27.2965 85.5012 27.2965C87.1972 27.2965 88.5892 26.7845 89.6772 25.7605C90.7652 24.7365 91.3092 23.3925 91.3092 21.7285C91.3092 20.0645 90.7652 18.7205 89.6772 17.6965C88.5892 16.6725 87.1972 16.1605 85.5012 16.1605C83.8052 16.1605 82.4132 16.6725 81.3252 17.6965C80.2372 18.7205 79.6932 20.0645 79.6932 21.7285C79.6932 23.3925 80.2372 24.7365 81.3252 25.7605ZM110.799 14.4805C111.247 12.9445 112.143 11.7765 113.487 10.9765C114.863 10.1445 116.367 9.72849 117.999 9.72849V17.8885C116.239 17.6005 114.591 17.9045 113.055 18.8005C111.551 19.6645 110.799 21.1845 110.799 23.3605V34.2085H103.599V10.2085H110.799V14.4805ZM138.086 10.2085H145.286V34.2085H138.086V31.9525C136.39 33.9045 134.006 34.8805 130.934 34.8805C127.766 34.8805 125.062 33.6645 122.822 31.2325C120.582 28.7685 119.462 25.7605 119.462 22.2085C119.462 18.6565 120.582 15.6645 122.822 13.2325C125.062 10.7685 127.766 9.5365 130.934 9.5365C134.006 9.5365 136.39 10.5125 138.086 12.4645V10.2085ZM128.246 26.4805C129.302 27.5365 130.678 28.0645 132.374 28.0645C134.07 28.0645 135.446 27.5365 136.502 26.4805C137.558 25.4245 138.086 24.0005 138.086 22.2085C138.086 20.4165 137.558 18.9925 136.502 17.9365C135.446 16.8805 134.07 16.3525 132.374 16.3525C130.678 16.3525 129.302 16.8805 128.246 17.9365C127.19 18.9925 126.662 20.4165 126.662 22.2085C126.662 24.0005 127.19 25.4245 128.246 26.4805ZM177.448 9.5365C180.2 9.5365 182.408 10.4485 184.072 12.2725C185.736 14.0645 186.568 16.4645 186.568 19.4725V34.2085H179.368V20.0965C179.368 18.8805 179.064 17.9205 178.456 17.2165C177.88 16.5125 177.032 16.1605 175.912 16.1605C174.728 16.1605 173.8 16.5605 173.128 17.3605C172.488 18.1605 172.168 19.2645 172.168 20.6725V34.2085H164.968V20.0965C164.968 18.8805 164.664 17.9205 164.056 17.2165C163.48 16.5125 162.632 16.1605 161.512 16.1605C160.328 16.1605 159.4 16.5605 158.728 17.3605C158.088 18.1605 157.768 19.2645 157.768 20.6725V34.2085H150.568V10.2085H157.768V12.4165C159.08 10.4965 161.224 9.5365 164.2 9.5365C166.984 9.5365 169.08 10.5925 170.488 12.7045C171.96 10.5925 174.28 9.5365 177.448 9.5365ZM208.914 10.2085H216.114V34.2085H208.914V31.9525C207.218 33.9045 204.834 34.8805 201.762 34.8805C198.594 34.8805 195.89 33.6645 193.65 31.2325C191.41 28.7685 190.29 25.7605 190.29 22.2085C190.29 18.6565 191.41 15.6645 193.65 13.2325C195.89 10.7685 198.594 9.5365 201.762 9.5365C204.834 9.5365 207.218 10.5125 208.914 12.4645V10.2085ZM199.074 26.4805C200.13 27.5365 201.506 28.0645 203.202 28.0645C204.898 28.0645 206.274 27.5365 207.33 26.4805C208.386 25.4245 208.914 24.0005 208.914 22.2085C208.914 20.4165 208.386 18.9925 207.33 17.9365C206.274 16.8805 204.898 16.3525 203.202 16.3525C201.506 16.3525 200.13 16.8805 199.074 17.9365C198.018 18.9925 197.49 20.4165 197.49 22.2085C197.49 24.0005 198.018 25.4245 199.074 26.4805ZM235.46 17.1205H230.516V25.6165C230.516 26.5765 230.9 27.1845 231.668 27.4405C232.436 27.6965 233.7 27.7765 235.46 27.6805V34.2085C230.884 34.6885 227.716 34.2565 225.956 32.9125C224.196 31.5365 223.316 29.1045 223.316 25.6165V17.1205H219.476V10.2085H223.316V5.64849L230.516 3.48849V10.2085H235.46V17.1205ZM245.5 25.0885C246.332 27.3285 248.252 28.4485 251.26 28.4485C253.212 28.4485 254.748 27.8405 255.868 26.6245L261.628 29.9365C259.26 33.2325 255.772 34.8805 251.164 34.8805C247.132 34.8805 243.9 33.6805 241.468 31.2805C239.068 28.8805 237.868 25.8565 237.868 22.2085C237.868 18.5925 239.052 15.5845 241.42 13.1845C243.82 10.7525 246.892 9.5365 250.636 9.5365C254.124 9.5365 257.02 10.7525 259.324 13.1845C261.66 15.5845 262.828 18.5925 262.828 22.2085C262.828 23.2325 262.732 24.1925 262.54 25.0885H245.5ZM245.356 19.7125H255.676C254.972 17.1845 253.276 15.9205 250.588 15.9205C247.804 15.9205 246.06 17.1845 245.356 19.7125ZM35.7713 82.8805C32.3473 82.8805 29.4833 82.1445 27.1793 80.6725C24.9073 79.1685 23.2913 77.1365 22.3313 74.5765L28.9553 70.7365C30.2993 73.8405 32.6513 75.3925 36.0113 75.3925C39.0513 75.3925 40.5713 74.4805 40.5713 72.6565C40.5713 71.6645 40.0753 70.8965 39.0833 70.3525C38.1233 69.7765 36.2993 69.1205 33.6113 68.3845C32.2033 68.0005 30.9713 67.5685 29.9153 67.0885C28.8593 66.6085 27.8193 65.9845 26.7953 65.2165C25.8033 64.4165 25.0353 63.4245 24.4913 62.2405C23.9793 61.0565 23.7233 59.6965 23.7233 58.1605C23.7233 55.0565 24.8273 52.5765 27.0353 50.7205C29.2753 48.8645 31.9313 47.9365 35.0033 47.9365C37.7553 47.9365 40.1873 48.5925 42.2993 49.9045C44.4113 51.1845 46.0753 53.0565 47.2913 55.5205L40.8113 59.3125C40.2033 58.0325 39.4513 57.0725 38.5553 56.4325C37.6593 55.7605 36.4753 55.4245 35.0033 55.4245C33.8513 55.4245 32.9553 55.6805 32.3153 56.1925C31.7073 56.6725 31.4033 57.2645 31.4033 57.9685C31.4033 58.8005 31.7873 59.5205 32.5553 60.1285C33.3553 60.7365 34.9873 61.4085 37.4513 62.1445C38.7953 62.5605 39.8353 62.8965 40.5713 63.1525C41.3073 63.4085 42.2353 63.8405 43.3553 64.4485C44.5073 65.0245 45.3713 65.6485 45.9473 66.3205C46.5553 66.9605 47.0833 67.8245 47.5313 68.9125C48.0113 69.9685 48.2513 71.1845 48.2513 72.5605C48.2513 75.7605 47.0993 78.2885 44.7953 80.1445C42.4913 81.9685 39.4833 82.8805 35.7713 82.8805ZM73.0966 79.2325C70.6326 81.6645 67.6246 82.8805 64.0726 82.8805C60.5206 82.8805 57.5126 81.6645 55.0486 79.2325C52.5846 76.7685 51.3526 73.7605 51.3526 70.2085C51.3526 66.6565 52.5846 63.6645 55.0486 61.2325C57.5126 58.7685 60.5206 57.5365 64.0726 57.5365C67.6246 57.5365 70.6326 58.7685 73.0966 61.2325C75.5606 63.6645 76.7926 66.6565 76.7926 70.2085C76.7926 73.7605 75.5606 76.7685 73.0966 79.2325ZM60.1366 74.2885C61.1926 75.3445 62.5046 75.8725 64.0726 75.8725C65.6406 75.8725 66.9526 75.3445 68.0086 74.2885C69.0646 73.2325 69.5926 71.8725 69.5926 70.2085C69.5926 68.5445 69.0646 67.1845 68.0086 66.1285C66.9526 65.0725 65.6406 64.5445 64.0726 64.5445C62.5046 64.5445 61.1926 65.0725 60.1366 66.1285C59.0806 67.1845 58.5526 68.5445 58.5526 70.2085C58.5526 71.8725 59.0806 73.2325 60.1366 74.2885ZM92.3851 82.8805C88.7371 82.8805 85.6971 81.6645 83.2651 79.2325C80.8651 76.8005 79.6651 73.7925 79.6651 70.2085C79.6651 66.6245 80.8651 63.6165 83.2651 61.1845C85.6971 58.7525 88.7371 57.5365 92.3851 57.5365C94.6891 57.5365 96.8011 58.0965 98.7211 59.2165C100.673 60.3365 102.177 61.8245 103.233 63.6805L96.9451 67.3285C96.0811 65.5365 94.5291 64.6405 92.2891 64.6405C90.7211 64.6405 89.4251 65.1685 88.4011 66.2245C87.3771 67.2485 86.8651 68.5765 86.8651 70.2085C86.8651 71.8405 87.3771 73.1845 88.4011 74.2405C89.4251 75.2645 90.7211 75.7765 92.2891 75.7765C94.5611 75.7765 96.1131 74.8805 96.9451 73.0885L103.233 76.6885C102.177 78.5765 100.689 80.0805 98.7691 81.2005C96.8491 82.3205 94.7211 82.8805 92.3851 82.8805ZM112.755 54.8485C111.923 55.6805 110.915 56.0965 109.731 56.0965C108.547 56.0965 107.523 55.6805 106.659 54.8485C105.827 53.9845 105.411 52.9605 105.411 51.7765C105.411 50.5925 105.827 49.5845 106.659 48.7525C107.523 47.8885 108.547 47.4565 109.731 47.4565C110.915 47.4565 111.923 47.8885 112.755 48.7525C113.619 49.5845 114.051 50.5925 114.051 51.7765C114.051 52.9605 113.619 53.9845 112.755 54.8485ZM106.131 82.2085V58.2085H113.331V82.2085H106.131ZM136.023 58.2085H143.223V82.2085H136.023V79.9525C134.327 81.9045 131.943 82.8805 128.871 82.8805C125.703 82.8805 122.999 81.6645 120.759 79.2325C118.519 76.7685 117.399 73.7605 117.399 70.2085C117.399 66.6565 118.519 63.6645 120.759 61.2325C122.999 58.7685 125.703 57.5365 128.871 57.5365C131.943 57.5365 134.327 58.5125 136.023 60.4645V58.2085ZM126.183 74.4805C127.239 75.5365 128.615 76.0645 130.311 76.0645C132.007 76.0645 133.383 75.5365 134.439 74.4805C135.495 73.4245 136.023 72.0005 136.023 70.2085C136.023 68.4165 135.495 66.9925 134.439 65.9365C133.383 64.8805 132.007 64.3525 130.311 64.3525C128.615 64.3525 127.239 64.8805 126.183 65.9365C125.127 66.9925 124.599 68.4165 124.599 70.2085C124.599 72.0005 125.127 73.4245 126.183 74.4805ZM148.506 82.2085V47.1685H155.706V82.2085H148.506ZM180.894 74.8165H192.894V82.2085H173.214V48.6085H180.894V74.8165ZM213.227 58.2085H220.427V82.2085H213.227V79.9525C211.531 81.9045 209.147 82.8805 206.075 82.8805C202.907 82.8805 200.203 81.6645 197.963 79.2325C195.723 76.7685 194.603 73.7605 194.603 70.2085C194.603 66.6565 195.723 63.6645 197.963 61.2325C200.203 58.7685 202.907 57.5365 206.075 57.5365C209.147 57.5365 211.531 58.5125 213.227 60.4645V58.2085ZM203.387 74.4805C204.443 75.5365 205.819 76.0645 207.515 76.0645C209.211 76.0645 210.587 75.5365 211.643 74.4805C212.699 73.4245 213.227 72.0005 213.227 70.2085C213.227 68.4165 212.699 66.9925 211.643 65.9365C210.587 64.8805 209.211 64.3525 207.515 64.3525C205.819 64.3525 204.443 64.8805 203.387 65.9365C202.331 66.9925 201.803 68.4165 201.803 70.2085C201.803 72.0005 202.331 73.4245 203.387 74.4805ZM240.061 57.5365C243.229 57.5365 245.933 58.7685 248.173 61.2325C250.413 63.6645 251.533 66.6565 251.533 70.2085C251.533 73.7605 250.413 76.7685 248.173 79.2325C245.933 81.6645 243.229 82.8805 240.061 82.8805C236.989 82.8805 234.605 81.9045 232.909 79.9525V82.2085H225.709V48.6085H232.909V60.4645C234.605 58.5125 236.989 57.5365 240.061 57.5365ZM234.493 74.4805C235.581 75.5365 236.957 76.0645 238.621 76.0645C240.285 76.0645 241.645 75.5365 242.701 74.4805C243.789 73.4245 244.333 72.0005 244.333 70.2085C244.333 68.4165 243.789 66.9925 242.701 65.9365C241.645 64.8805 240.285 64.3525 238.621 64.3525C236.957 64.3525 235.581 64.8805 234.493 65.9365C233.437 66.9925 232.909 68.4165 232.909 70.2085C232.909 72.0005 233.437 73.4245 234.493 74.4805Z" fill="#FFF559"/>
</svg>
